<?xml version="1.0" standalone="no"?>
<!DOCTYPE svg PUBLIC "-//W3C//DTD SVG 20010904//EN"
 "http://www.w3.org/TR/2001/REC-SVG-20010904/DTD/svg10.dtd">
<svg version="1.0" xmlns="http://www.w3.org/2000/svg"
 width="225.000000pt" height="225.000000pt" viewBox="0 0 225.000000 225.000000"
 preserveAspectRatio="xMidYMid meet">
<metadata>
Created by potrace 1.11, written by Peter Selinger 2001-2013
</metadata>
<g transform="translate(0.000000,225.000000) scale(0.100000,-0.100000)"
fill="#000000" stroke="none">
<path d="M1025 2149 c-161 -14 -341 -78 -477 -170 -123 -83 -270 -245 -332
-366 l-16 -32 171 -131 c94 -73 172 -130 173 -128 1 1 19 38 40 81 73 152 235
278 406 318 146 33 333 0 455 -80 l60 -40 150 149 c171 171 168 143 30 235
-133 88 -296 149 -433 160 -37 3 -83 7 -102 9 -19 2 -75 -1 -125 -5z"/>
<path d="M1130 1115 l0 -195 275 0 c170 0 275 -4 275 -10 0 -25 -46 -126 -82
-180 -117 -176 -396 -260 -638 -193 -156 43 -304 164 -375 308 -22 44 -41 81
-41 83 -1 2 -79 -56 -173 -128 l-172 -132 30 -51 c149 -258 397 -438 686 -498
112 -23 292 -25 403 -4 344 65 616 299 726 623 53 156 74 363 53 515 l-8 57
-480 0 -479 0 0 -195z"/>
</g>
</svg>
